HIERARCHY
ROOT Hips
{
	OFFSET -0.179506 -22.333345 2.821913
	CHANNELS 6 Xposition Yposition Zposition Zrotation Yrotation Xrotation 
	JOINT LeftUpLeg
	{
		OFFSET 6.951974 -9.140623 -0.681533
		CHANNELS 3 Zrotation Yrotation Xrotation
		JOINT LeftLeg
		{
			OFFSET 3.427654 -37.519855 -0.449580
			CHANNELS 3 Zrotation Yrotation Xrotation
			JOINT LeftFoot
			{
				OFFSET -1.359570 -39.796059 -4.369333
				CHANNELS 3 Zrotation Yrotation Xrotation
				JOINT LeftToe
				{
					OFFSET 2.635814 -5.579078 11.928840
					CHANNELS 3 Zrotation Yrotation Xrotation
					End Site
					{
						OFFSET 0.000000 0.000000 0.000000
					}
				}
			}
		}
	}
	JOINT RightUpLeg
	{
		OFFSET -6.767048 -9.052170 -0.431982
		CHANNELS 3 Zrotation Yrotation Xrotation
		JOINT RightLeg
		{
			OFFSET -3.829005 -38.256897 -0.885003
			CHANNELS 3 Zrotation Yrotation Xrotation
			JOINT RightFoot
			{
				OFFSET 1.577377 -39.841461 -4.231180
				CHANNELS 3 Zrotation Yrotation Xrotation
				JOINT RightToe
				{
					OFFSET -2.537174 -4.814398 12.334795
					CHANNELS 3 Zrotation Yrotation Xrotation
					End Site
					{
						OFFSET 0.000000 0.000000 0.000000
					}
				}
			}
		}
	}
	JOINT Spine
	{
		OFFSET -0.253288 10.896323 -2.669631
		CHANNELS 3 Zrotation Yrotation Xrotation
		JOINT Spine1
		{
			OFFSET 0.548704 13.518043 0.109247
			CHANNELS 3 Zrotation Yrotation Xrotation
			JOINT Spine2
			{
				OFFSET 0.145701 5.292222 2.542457
				CHANNELS 3 Zrotation Yrotation Xrotation
				JOINT Neck
				{
					OFFSET -0.277840 21.387037 -4.285703
					CHANNELS 3 Zrotation Yrotation Xrotation
					JOINT Head
					{
						OFFSET 0.515184 6.496960 5.134897
						CHANNELS 3 Zrotation Yrotation Xrotation
						End Site
						{
							OFFSET 0.000000 0.000000 0.000000
						}
					}
				}
				JOINT LeftShoulder
				{
					OFFSET 7.884473 12.174932 -3.408961
					CHANNELS 3 Zrotation Yrotation Xrotation
					JOINT LeftArm
					{
						OFFSET 9.097692 3.046888 -0.886815
						CHANNELS 3 Zrotation Yrotation Xrotation
						JOINT LeftForeArm
						{
							OFFSET 25.961220 -1.277207 -2.745643
							CHANNELS 3 Zrotation Yrotation Xrotation
							JOINT LeftHand
							{
								OFFSET 24.923361 0.898606 -0.117091
								CHANNELS 3 Zrotation Yrotation Xrotation
								End Site
								{
									OFFSET 0.000000 0.000000 0.000000
								}
							}
						}
					}
				}
				JOINT RightShoulder
				{
					OFFSET -8.175920 11.883285 -3.861528
					CHANNELS 3 Zrotation Yrotation Xrotation
					JOINT RightArm
					{
						OFFSET -9.601238 3.255117 -0.914307
						CHANNELS 3 Zrotation Yrotation Xrotation
						JOINT RightForeArm
						{
							OFFSET -25.374195 -1.332924 -2.140099
							CHANNELS 3 Zrotation Yrotation Xrotation
							JOINT RightHand
							{
								OFFSET -25.529810 0.777228 -0.555919
								CHANNELS 3 Zrotation Yrotation Xrotation
								End Site
								{
									OFFSET 0.000000 0.000000 0.000000
								}
							}
						}
					}
				}
			}
		}
	}
}
MOTION
Frames: 7
Frame Time: 0.033333
96.878441 -145.758575 101.279259 -117.360932 9.075147 77.045495 7.058374 -4.037658 19.095043 -6.398829 -17.349075 19.732172 -4.091882 11.875886 1.337213 nan nan nan -11.401522 3.787953 -42.786522 -9.486195 -25.861716 111.979542 7.376414 0.767351 -8.457298 nan nan nan -0.030451 -12.108454 26.421482 6.255561 -0.465630 1.347422 1.114191 -4.017286 -0.830011 4.547505 6.365490 2.756863 -1.248809 -2.358032 3.888011 -25.117741 -4.799959 0.297737 -56.056661 -14.187699 18.103390 18.452864 -47.567463 -10.099891 5.468583 -15.398862 -15.803567 25.728699 -1.117447 2.034693 52.636237 -17.941655 10.076102 -9.458624 11.839081 0.485091 16.283094 2.723981 10.118141 
95.719666 -144.740753 102.267708 -116.905820 9.106458 76.973550 7.398166 -3.879000 19.220038 -6.616350 -17.354585 19.995091 -2.666935 11.480505 4.048486 nan nan nan -11.557520 3.767895 -43.909493 -9.524774 -26.244083 111.724232 7.133636 0.504530 -8.900668 nan nan nan -0.334463 -12.431470 26.236541 6.403975 -0.489766 1.498411 1.311089 -4.199036 -0.932953 4.355694 5.964049 3.520323 -0.927539 -1.895001 3.479870 -24.400410 -4.622340 0.430075 -56.267827 -14.743231 18.384322 19.409337 -49.030644 -10.035539 6.399810 -15.154865 -16.710079 25.122612 -1.575041 2.324896 53.274891 -18.560883 9.489243 -9.966035 12.025028 -0.922077 15.825845 3.120098 8.111175 
94.564087 -143.816254 103.203743 -116.345645 9.126659 76.912416 7.628329 -3.652911 19.249135 -6.733878 -17.117078 20.276482 -2.962408 11.431353 6.700889 nan nan nan -11.736242 3.547810 -44.805798 -9.715743 -26.469490 111.406560 6.704891 0.276069 -9.121474 nan nan nan -0.361641 -12.804494 26.266086 6.410727 -0.621071 1.392383 1.393039 -4.391943 -1.078448 4.025046 5.484278 4.193215 -0.603616 -1.363999 3.077646 -23.881499 -4.453640 0.497108 -56.536798 -15.166215 18.284254 20.805386 -50.541052 -10.279781 6.527812 -15.326593 -17.111098 24.557258 -2.001074 2.615010 53.886592 -19.035823 8.556223 -10.585363 11.938436 -2.251249 16.026516 3.581702 6.161883 
93.422226 -142.938675 104.063614 -115.846934 8.973656 76.821561 7.573515 -3.385226 19.196805 -6.786898 -16.757506 20.625574 -3.235760 11.669783 8.925235 nan nan nan -11.882512 3.148173 -45.578556 -9.903866 -26.406457 110.973380 6.223044 -0.059522 -9.405982 nan nan nan -0.478262 -13.022336 26.455613 6.394854 -0.804655 1.134357 1.408177 -4.566686 -1.145038 3.772652 5.116375 4.561051 -0.328829 -0.988872 2.827362 -23.140850 -4.235640 0.340559 -56.529302 -15.758868 18.484596 21.260932 -51.938198 -9.839037 6.895906 -15.685854 -18.686875 23.923889 -2.482309 2.640820 54.445547 -19.449692 7.962542 -11.132128 11.539156 -3.649014 16.389716 4.468057 3.256267 
92.280144 -142.085083 104.836494 -115.526109 8.697077 76.781388 7.294902 -3.156446 19.004499 -6.903049 -16.438965 21.043353 -2.901719 11.788898 10.255826 nan nan nan -11.936076 2.779222 -46.400210 -9.898043 -26.165259 110.415991 5.845826 -0.404546 -9.928030 nan nan nan -0.600600 -13.107011 26.569111 6.281229 -0.896698 0.744767 1.404597 -4.718358 -1.068727 3.611195 4.955486 4.666108 -0.022410 -0.751765 2.877208 -22.447203 -4.032745 0.210671 -56.416742 -16.344011 18.495871 21.726007 -53.571810 -9.760450 6.818491 -15.638360 -19.679458 23.347555 -3.007675 2.810937 55.030324 -19.946140 7.576331 -11.396699 11.586653 -4.102898 15.821831 4.851515 2.645510 
91.110306 -141.300613 105.564926 -115.231479 8.401773 76.695748 6.773917 -3.060283 18.965486 -7.006002 -16.606293 21.167880 -2.867388 11.663552 10.795580 nan nan nan -11.996035 2.462582 -47.048033 -9.718057 -25.882748 109.744663 5.689927 -0.187685 -10.433109 nan nan nan -0.529859 -13.204836 26.876227 6.033494 -0.977693 0.123759 1.354545 -4.769508 -0.962053 3.399963 4.952952 4.749740 0.311706 -0.743933 2.950935 -21.892774 -3.962269 0.001550 -56.452635 -16.912529 18.338464 22.273530 -54.965084 -9.885925 5.974070 -15.790580 -19.614112 22.851218 -3.522934 3.058006 55.614648 -20.612019 7.051469 -11.413917 11.961159 -3.692565 14.710494 4.794622 3.909958 
89.974274 -140.364456 106.219688 -114.673674 8.275705 76.648233 6.653772 -3.160072 19.006519 -7.328924 -17.218120 20.972338 -3.178734 10.990492 10.489947 nan nan nan -11.931758 2.260290 -47.425325 -9.686551 -25.905015 109.073642 5.600438 0.126896 -11.054512 nan nan nan -0.625345 -13.346594 26.981703 5.962393 -1.152569 -0.242218 1.398072 -4.863286 -0.751433 3.246352 4.912405 4.737976 0.635710 -0.661855 2.990231 -21.297381 -3.910790 -0.267635 -56.552414 -17.439158 18.403639 23.274598 -56.417412 -10.449179 6.622770 -15.879299 -19.620704 22.345224 -4.046607 3.021022 56.182360 -21.200665 6.584961 -11.512711 12.027771 -3.769429 14.092021 4.902203 4.667907 
